<?xml version="1.0" encoding="utf-8"?>
<!-- Generator: Adobe Illustrator 24.2.1, SVG Export Plug-In . SVG Version: 6.00 Build 0)  -->
<svg version="1.1" id="Capa_1" xmlns="http://www.w3.org/2000/svg" xmlns:xlink="http://www.w3.org/1999/xlink" x="0px" y="0px"
	 viewBox="0 0 445.03 728.36" style="enable-background:new 0 0 445.03 728.36;" xml:space="preserve" fill="white">
<g>
	<path d="M438.88,293.41c-6.81-15.75-14.27-31.21-21.45-46.65c0.88-1.48,1.34-2.76,2.21-3.63c4.4-4.39,5.81-9.7,5.83-15.8
		c0.04-12.34-3.14-23.93-8.59-34.73c-7.59-15.05-16.22-29.57-23.93-44.56c-12.55-24.4-28.56-45.98-50.79-62.28
		c-10.96-8.03-22.38-15.76-34.51-21.75c-10.2-5.04-21.7-7.49-32.71-10.82c-7.17-2.17-14.87-3-21.64-6
		c-6.79-3.01-12.69-8.02-19.04-12.06c-2.65-1.69-5.45-3.13-8.76-5.01c-0.89,7.9,6.83,8.88,8.19,12.98c-9.1-6.7-18.9-13.7-28.38-21.1
		c-1.69-1.32-2.32-4.23-3.02-6.54c-0.69-2.24-0.84-4.65-1.23-6.98c-0.97,0-1.95,0-2.92,0c-0.46,2.52-0.92,5.03-1.48,8.03
		c-5.75-2.71-11.39-5.37-17.04-8.03c-0.97,0-1.95,0-2.92,0c1.06,3.59,1.99,7.23,3.21,10.77c2.37,6.85,4.91,13.64,7.8,21.59
		c-8.65-1.07-15.59-2.48-22.55-2.65c-8.93-0.22-15.8-5.61-23.77-8.15c-8.16-2.6-16.34-4.02-25.02-2.54
		c-4.16,0.71-8.61-0.23-13.07-0.43c-3.43,6.89-6.92,13.89-10.61,21.29c-13.28-2.32-26.52-5.4-40.39-0.32
		c0.98,1.9,1.68,3.63,2.7,5.16c4.07,6.13,8.28,12.17,12.31,18.33c0.63,0.96,1.14,2.6,0.76,3.53c-2.44,5.89-5.15,11.67-7.96,17.91
		c-3.7-2.26-7.12-4.29-10.47-6.43c-3.25-2.08-5.67-1.09-7.93,1.68c-3.78,4.65-6.05,9.78-5.53,15.89c0.7,8.26-1.04,15.53-5.75,22.78
		c-8.16,12.55-11.37,26.97-12.87,41.84c-0.98,9.75-3.26,19.2-8.84,27.64c-1.65,2.49-2.04,5.89-2.72,8.93
		c-0.51,2.29-0.57,4.69-0.82,7.04c0,18.86,0,37.72,0,56.57c0.26,1.05,0.67,2.1,0.74,3.16c0.38,5.3,0.69,10.61,1,15.92
		c0.36,6.18,0.69,12.35,1.03,18.53c0.58,10.45,0.41,21.02,1.96,31.33c1.52,10.07,4.58,19.94,7.36,29.78
		c3.53,12.47,7.63,24.78,11.11,37.26c1.19,4.26,2.41,9.08,1.54,13.21c-1.47,7-0.94,13.61,0.75,20.28c1.13,4.44,2.72,8.76,4.13,13.13
		c0.76,2.37,2.01,4.69,2.25,7.11c0.68,6.9,0.54,13.89,1.47,20.75c1.5,11.09,3.88,22.06,5.35,33.15c0.66,4.99,2.68,15.79,5.72,25.43
		c2.94,14.74,7.25,30.87,8.76,33.71c11.94,22.46,24.01,44.86,36.03,67.28c3.34,6.24,6.57,12.55,10.08,18.69
		c5.38,9.4,12.9,17.03,21.5,23.34c9.16,6.72,18.65,13.14,28.56,18.66c8.79,4.9,18.49,8.11,27.55,12.56
		c12.08,5.94,25.2,6.09,38.09,7.39c10.35,1.05,20.56-0.76,30.73-2.74c14.33-2.78,28.72-5.21,43.04-8.04
		c1.73-0.34,3.93-1.92,4.58-3.48c2.92-7.02,7.79-11.84,14.19-15.87c7.44-4.69,15.52-9.29,21.09-15.84
		c11.74-13.79,22.17-28.73,32.88-43.38c8.57-11.73,10.67-14.72,10.97-22.33c4.35-14.43,14.98-50.89,20.14-68.18
		c1.92-2.34,4.03-4.34,4.64-6.72c2.22-8.62,3.68-17.44,5.39-26.19c0.18-0.94-0.04-1.95,0.04-2.92c0.66-8.02,1.22-16.05,2.06-24.06
		c1.15-11.01,2.51-22,3.79-33c0.76-6.53,1.62-13.06,2.31-19.6c0.97-9.15,1.83-18.31-2.69-27.98c1.73-1.41,3.64-2.97,6.08-4.97
		c0.47-2.9,1.16-6.68,1.7-10.47c1.14-7.94,2.66-15.85,3.18-23.83c0.69-10.64,1.89-21.08,5.77-31.1c3.13-8.06,6.46-16.07,8.94-24.33
		C440.06,301.13,440.26,296.6,438.88,293.41z M360.46,612.47c-5.59,6.47-12.28,12-18.6,18.05c-2.51-2.2-4.08-0.19-5.48,2.2
		c-2.3,3.93-5.3,6.09-10.2,4.9c-1.37-0.33-3.52,0.12-4.51,1.06c-2.89,2.72-5.37,5.87-8.24,9.12c-1.71-0.75-4.08-1.77-7.42-3.23
		c0.28,3.53,0.45,5.59,0.59,7.66c0.13,1.9,0.22,3.79,0.38,6.7c-4.78-2.97-8.64-5.08-11.83-0.57c-1.51,0-2.84,0-3.21,0
		c-1.63,2.4-2.84,4.18-3.93,5.77c-1.94-0.6-3.24-0.99-4.82-1.48c-0.31,2.16-0.56,3.87-0.81,5.58c-5.9,1.84-13.11,0.22-16.09,5.68
		c-4.03,2.02-6.93,3.47-10.48,5.24c-3.25-0.48-7.62-0.42-11.4-1.88c-4.85-1.88-9.36-1.72-14.09-0.35c-3.24,0.94-6.43,2.06-9.7,2.84
		c-1.58,0.37-3.34,0.35-4.96,0.12c-1.98-0.28-3.88-1.03-5.84-1.47c-1.23-0.28-3.14,0.12-3.67-0.59c-3.87-5.22-5.76-0.76-8.91,2.33
		c-4.32-1.74-8.89-4.58-13.76-5.26c-5.05-0.7-10,0.05-13.81-4.65c-1.61-1.98-4.69-2.71-6.94-4.25c-2.71-1.85-5.25-3.96-7.86-5.95
		c0.2-0.29,0.4-0.58,0.6-0.87c-1.23-0.2-2.46-0.41-3.73-0.62c-0.21-1.88-0.39-3.45-0.62-5.46c-2.43,0.15-4.6,0.28-6.68,0.41
		c-1.31-2.02-2.67-4.12-3.91-6.02c-3.06,0.24-5.65,0.45-8.57,0.69c0.36-2.62,0.61-4.44,0.94-6.85c-3.06,0.26-5.66,0.48-8.19,0.69
		c0.17-2.41,0.33-4.58,0.51-7.11c-12.78,0.37-19.58-8.09-26.52-16.47c-4.65-5.62-7.39-12.65-13.2-17.42c-2.04-1.68-4.17-3.68-5.27-6
		c-3.45-7.25-6.47-14.7-9.57-22.11c-1.55-3.7-6.16-20.26-10.54-35.78c-1.38-11-3.01-22.9-4.04-24.64
		c-3.71-6.22-5.78-12.49-4.94-19.69c0.07-0.64,0.01-1.3-0.04-1.95c-0.95-12.84-1.98-25.68-2.85-38.53
		c-1.16-17.17,0.84-34.22,2.31-51.27c0.78-9.09,2.15-18.14,3.62-27.16c3.76-23.07,7.76-46.09,11.59-69.15
		c0.6-3.64,0.13-7.6,1.37-10.96c3.22-8.68,7.13-17.1,10.75-25.62c1.93-4.54,4.58-8.37,8.96-11.03c5.75-3.49,11.48-7.09,16.84-11.14
		c3.93-2.97,6.94-3.31,10.16,0.71c2.13,2.66,4.44,3,6.62-0.26c-0.77-2.05-1.47-3.94-2.09-5.6c5.7-4.82,11.48-5.29,18.23-3.24
		c4.5,1.37,9.94,2.17,14.27,0.89c4.98-1.47,8.88-0.22,13.3,0.91c2.64,0.68,5.55,0.73,8.29,0.46c3.45-0.33,6.82-1.71,10.26-1.86
		c6.81-0.31,13.64-0.11,20.46-0.1c6.16,0,12.01-0.77,17.44-4.25c3.61-2.31,7.68-4.07,11.76-5.44c13.22-4.43,26.43-0.89,39.65,0.4
		c9.27,0.9,18.55,1.93,27.85,2.28c3.08,0.12,5.84,0.01,8.47,1.85c7.08,4.93,15.09,7.51,23.49,9.09c1.88,0.35,3.8,0.75,5.54,1.5
		c14.56,6.27,21.7,19.55,29.83,31.87c0.32,0.48,0.25,1.26,0.26,1.91c0.27,14.55,4.68,28.5,5.38,43.15
		c0.85,17.86,6.85,35.1,12.64,52.08c6.04,17.72,10.93,35.69,12.99,54.35c0.07,0.62-0.11,1.26-0.12,1.9
		c-0.2,10.41-0.41,20.82-0.58,31.23c-0.01,0.46,0.31,0.92,0.38,1.39c0.79,5.53,2.64,11.17,2.08,16.56
		c-0.94,9.01-3.16,17.93-5.34,26.77c-2.32,9.39-2.15,18.86-1.95,28.33c-4.63,14.4-13.18,42.55-18.33,59.7
		C369.99,599.23,365.77,606.32,360.46,612.47z"/>
	<path d="M142.31,348.53c-15.17-4.37-30.23-9.21-46.06-6.33c-4.73,1.42-9.45,2.85-13.8,4.15c-1.24,1.59-2.17,3.03-3.34,4.23
		c-1.73,1.79-3.88,3.21-5.4,5.15c-1.88,2.39-3.19,5.21-4.93,7.71c-2.85,4.09-2.64,7.62,0.26,10.67c0,3.88,0,7.07,0,10.63
		c2.32,0,4.32,0,6.52,0c2.38-3.74,4.64-7.43,7.07-11.01c0.8-1.18,1.87-2.45,3.11-3c8.22-3.67,16.51-7.2,25.81-4.03
		c1.97,0.67,3.95,1.37,5.97,1.83c17.35,3.87,34.65,7.95,52.08,11.4c6.5,1.29,13.3,1.08,19.31,1.5c5.16-8.41,0.04-14.33-1.73-20.39
		C171.93,356.79,157.09,352.78,142.31,348.53z"/>
	<path d="M350.49,365.55c-17.45-7.33-35.66-9.43-54.32-6.92c-13.95,1.88-27.82,4.37-41.8,6.6c-1.09-1.91-2.3-4.04-3.51-6.18
		c-0.55,0.21-1.1,0.42-1.65,0.63c-0.69,1.41-1.39,2.83-2.09,4.26c-2.29,0.59-4.59,1.19-6.8,1.77c-0.44,1.47-0.84,2.81-1.25,4.18
		c-2.02,0.23-3.75,0.43-6.38,0.73c1.48,4.36,2.81,8.31,4.29,12.68c11.66,0.94,23,1.96,34.37,2.69c2.84,0.18,5.73-0.71,8.61-0.87
		c12.23-0.7,24.5-0.93,36.68-2.07c12.43-1.16,24.79-3.12,37.16-4.86c1.28-0.18,2.42-1.29,3.31-1.79c-1.29-3.11-2.05-5.53-3.27-7.69
		C353.09,367.43,351.82,366.11,350.49,365.55z"/>
</g>
</svg>
